<svg xmlns="http://www.w3.org/2000/svg" viewBox="0 0 64 30" shape-rendering="crispEdges"><rect x="16" y="0" width="4" height="1" fill="#000"/><rect x="15" y="1" width="6" height="1" fill="#000"/><rect x="15" y="2" width="6" height="1" fill="#000"/><rect x="15" y="3" width="9" height="1" fill="#000"/><rect x="16" y="4" width="8" height="1" fill="#000"/><rect x="17" y="5" width="4" height="1" fill="#000"/><rect x="6" y="6" width="1" height="1" fill="#000"/><rect x="16" y="6" width="5" height="1" fill="#000"/><rect x="6" y="7" width="2" height="1" fill="#000"/><rect x="14" y="7" width="8" height="1" fill="#000"/><rect x="6" y="8" width="3" height="1" fill="#000"/><rect x="11" y="8" width="11" height="1" fill="#000"/><rect x="6" y="9" width="16" height="1" fill="#000"/><rect x="6" y="10" width="16" height="1" fill="#000"/><rect x="7" y="11" width="15" height="1" fill="#000"/><rect x="8" y="12" width="13" height="1" fill="#000"/><rect x="9" y="13" width="11" height="1" fill="#000"/><rect x="10" y="14" width="9" height="1" fill="#000"/><rect x="12" y="15" width="1" height="1" fill="#000"/><rect x="16" y="15" width="1" height="1" fill="#000"/><rect x="11" y="16" width="2" height="1" fill="#000"/><rect x="15" y="16" width="2" height="1" fill="#000"/><rect x="42" y="16" width="1" height="1" fill="#000"/><rect x="50" y="16" width="1" height="1" fill="#000"/><rect x="43" y="17" width="1" height="1" fill="#000"/><rect x="49" y="17" width="1" height="1" fill="#000"/><rect x="44" y="18" width="5" height="1" fill="#000"/><rect x="40" y="19" width="1" height="1" fill="#000"/><rect x="43" y="19" width="7" height="1" fill="#000"/><rect x="52" y="19" width="1" height="1" fill="#000"/><rect x="41" y="20" width="11" height="1" fill="#000"/><rect x="42" y="21" width="9" height="1" fill="#000"/><rect x="40" y="22" width="1" height="1" fill="#000"/><rect x="42" y="22" width="9" height="1" fill="#000"/><rect x="52" y="22" width="1" height="1" fill="#000"/><rect x="41" y="23" width="11" height="1" fill="#000"/><rect x="42" y="24" width="9" height="1" fill="#000"/><rect x="41" y="25" width="1" height="1" fill="#000"/><rect x="43" y="25" width="7" height="1" fill="#000"/><rect x="51" y="25" width="1" height="1" fill="#000"/><rect x="40" y="26" width="1" height="1" fill="#000"/><rect x="44" y="26" width="5" height="1" fill="#000"/><rect x="52" y="26" width="1" height="1" fill="#000"/><rect x="0" y="28" width="64" height="1" fill="#000"/><rect x="10" y="29.5" width="3" height="0.5" fill="#000"/><rect x="48" y="29.5" width="2" height="0.5" fill="#000"/></svg>
